HIERARCHY
ROOT Hips
{
	OFFSET -0.001795 -0.223333 0.028219
	CHANNELS 6 Xposition Yposition Zposition Zrotation Yrotation Xrotation 
	JOINT LeftUpLeg
	{
		OFFSET 0.069520 -0.091406 -0.006815
		CHANNELS 3 Zrotation Yrotation Xrotation
		JOINT LeftLeg
		{
			OFFSET 0.034277 -0.375199 -0.004496
			CHANNELS 3 Zrotation Yrotation Xrotation
			JOINT LeftFoot
			{
				OFFSET -0.013596 -0.397961 -0.043693
				CHANNELS 3 Zrotation Yrotation Xrotation
				JOINT LeftToe
				{
					OFFSET 0.026358 -0.055791 0.119288
					CHANNELS 3 Zrotation Yrotation Xrotation
					End Site
					{
						OFFSET 0.000000 0.000000 0.000000
					}
				}
			}
		}
	}
	JOINT RightUpLeg
	{
		OFFSET -0.067670 -0.090522 -0.004320
		CHANNELS 3 Zrotation Yrotation Xrotation
		JOINT RightLeg
		{
			OFFSET -0.038290 -0.382569 -0.008850
			CHANNELS 3 Zrotation Yrotation Xrotation
			JOINT RightFoot
			{
				OFFSET 0.015774 -0.398415 -0.042312
				CHANNELS 3 Zrotation Yrotation Xrotation
				JOINT RightToe
				{
					OFFSET -0.025372 -0.048144 0.123348
					CHANNELS 3 Zrotation Yrotation Xrotation
					End Site
					{
						OFFSET 0.000000 0.000000 0.000000
					}
				}
			}
		}
	}
	JOINT Spine
	{
		OFFSET -0.002533 0.108963 -0.026696
		CHANNELS 3 Zrotation Yrotation Xrotation
		JOINT Spine1
		{
			OFFSET 0.005487 0.135180 0.001092
			CHANNELS 3 Zrotation Yrotation Xrotation
			JOINT Spine2
			{
				OFFSET 0.001457 0.052922 0.025425
				CHANNELS 3 Zrotation Yrotation Xrotation
				JOINT Neck
				{
					OFFSET -0.002778 0.213870 -0.042857
					CHANNELS 3 Zrotation Yrotation Xrotation
					JOINT Head
					{
						OFFSET 0.005152 0.064970 0.051349
						CHANNELS 3 Zrotation Yrotation Xrotation
						End Site
						{
							OFFSET 0.000000 0.000000 0.000000
						}
					}
				}
				JOINT LeftShoulder
				{
					OFFSET 0.078845 0.121749 -0.034090
					CHANNELS 3 Zrotation Yrotation Xrotation
					JOINT LeftArm
					{
						OFFSET 0.090977 0.030469 -0.008868
						CHANNELS 3 Zrotation Yrotation Xrotation
						JOINT LeftForeArm
						{
							OFFSET 0.259612 -0.012772 -0.027456
							CHANNELS 3 Zrotation Yrotation Xrotation
							JOINT LeftHand
							{
								OFFSET 0.249234 0.008986 -0.001171
								CHANNELS 3 Zrotation Yrotation Xrotation
								End Site
								{
									OFFSET 0.000000 0.000000 0.000000
								}
							}
						}
					}
				}
				JOINT RightShoulder
				{
					OFFSET -0.081759 0.118833 -0.038615
					CHANNELS 3 Zrotation Yrotation Xrotation
					JOINT RightArm
					{
						OFFSET -0.096012 0.032551 -0.009143
						CHANNELS 3 Zrotation Yrotation Xrotation
						JOINT RightForeArm
						{
							OFFSET -0.253742 -0.013329 -0.021401
							CHANNELS 3 Zrotation Yrotation Xrotation
							JOINT RightHand
							{
								OFFSET -0.255298 0.007772 -0.005559
								CHANNELS 3 Zrotation Yrotation Xrotation
								End Site
								{
									OFFSET 0.000000 0.000000 0.000000
								}
							}
						}
					}
				}
			}
		}
	}
}
MOTION
Frames: 13
Frame Time: 0.050000
0.000000 0.959099 0.000000 -0.376756 -4.632928 0.460949 4.248579 0.137213 2.578408 -1.214010 0.188869 -1.981444 3.434497 9.926991 13.088621 0.000000 0.000000 0.000000 -3.221894 0.068554 0.619685 2.276876 -0.231893 -0.720931 -2.096515 -9.244971 11.038559 0.000000 0.000000 0.000000 6.372770 -0.262661 2.197456 -6.094255 1.989787 -25.162060 -1.471390 6.218174 29.570061 7.793661 -3.587551 -18.765260 0.000000 0.000000 0.000000 -4.373381 -0.486719 -0.151560 -54.221706 -2.788144 -7.906111 -17.864019 -30.869736 6.446178 0.000000 0.000000 0.000000 12.829255 -10.911163 -5.506587 55.228897 0.867925 -7.431413 22.146302 30.818028 7.877071 0.000000 0.000000 0.000000 
-0.000088 0.957864 0.001098 -0.645311 -4.769243 0.891032 4.584163 0.147081 2.949836 -1.272737 0.209106 -2.598626 3.995916 10.588542 11.634705 0.000000 0.000000 0.000000 -3.311449 0.105465 0.184245 2.508551 -0.245732 -0.432725 -2.197827 -9.523927 11.308579 0.000000 0.000000 0.000000 6.688307 -0.224050 1.639226 -6.760050 2.126287 -25.695117 -1.047014 5.717179 29.867177 6.787257 -3.210099 -17.334967 0.000000 0.000000 0.000000 -4.534980 -0.153534 -0.251977 -54.406402 -2.787039 -7.943472 -16.985294 -30.987632 6.305909 0.000000 0.000000 0.000000 12.826408 -10.617149 -5.436131 55.898255 -0.402238 -8.134247 21.773391 31.775987 8.008417 0.000000 0.000000 0.000000 
-0.000233 0.956963 0.001805 -0.321548 -3.929692 0.964484 4.579987 0.078872 1.929486 -1.279144 0.162975 -0.588386 3.170335 9.206201 11.069317 0.000000 0.000000 0.000000 -3.510810 0.106998 0.195073 2.329225 -0.231709 -0.327394 -2.498153 -9.809945 10.617498 0.000000 0.000000 0.000000 6.756743 -0.143166 0.777661 -6.758690 2.131539 -25.827491 -1.197870 5.919554 30.672323 7.140856 -3.315561 -17.670851 0.000000 0.000000 0.000000 -4.812215 -1.073155 0.054740 -53.944787 -2.761774 -8.015148 -17.732135 -30.687383 6.384658 0.000000 0.000000 0.000000 12.759869 -11.168148 -5.592590 56.806443 -0.572869 -8.355228 20.127004 31.224462 7.486241 0.000000 0.000000 0.000000 
-0.000495 0.956799 0.002457 -0.337383 -3.683831 1.088437 4.486213 0.080148 1.992297 -1.094722 0.143098 -0.650831 3.200762 9.252778 10.930975 0.000000 0.000000 0.000000 -3.544841 0.110205 0.151045 2.826557 -0.277832 -0.236355 -2.670705 -10.164719 10.827826 0.000000 0.000000 0.000000 6.833887 -0.090029 0.210256 -6.993495 2.168571 -26.454123 -1.158779 5.580040 31.473793 6.523061 -3.169977 -16.090539 0.000000 0.000000 0.000000 -4.335687 -0.605494 -0.078012 -54.518266 -2.715570 -8.179903 -17.329456 -31.034761 6.397401 0.000000 0.000000 0.000000 12.262645 -11.705831 -5.816572 57.170272 -0.204392 -8.287322 20.134488 30.178659 7.207676 0.000000 0.000000 0.000000 
-0.000791 0.956909 0.003049 -0.346931 -3.337471 1.033390 4.387577 0.069216 1.817493 -1.018436 0.135276 -0.704413 3.164981 9.314952 11.394544 0.000000 0.000000 0.000000 -3.611827 0.107628 0.177450 2.781770 -0.276719 -0.283274 -2.837342 -10.502779 11.066521 0.000000 0.000000 0.000000 6.569710 -0.068957 0.025458 -6.385104 2.042670 -26.211164 -1.393155 5.586589 30.891614 6.484014 -3.257505 -15.002350 0.000000 0.000000 0.000000 -4.380581 -0.792229 -0.027612 -54.561303 -2.730699 -8.136066 -17.491909 -30.582123 6.307297 0.000000 0.000000 0.000000 11.854745 -11.832731 -5.803482 57.115810 -0.448231 -8.296679 19.804332 30.273811 7.145602 0.000000 0.000000 0.000000 
-0.001015 0.956992 0.003468 -0.452869 -2.628755 1.121467 4.611961 0.047096 1.671064 -1.161763 0.150562 -0.753592 3.200571 9.426836 11.319973 0.000000 0.000000 0.000000 -3.535701 0.097656 0.209113 2.715890 -0.277482 -0.433090 -2.784570 -10.364498 11.207873 0.000000 0.000000 0.000000 6.434127 -0.056848 -0.124078 -6.372782 2.034812 -26.545735 -1.271525 4.884249 31.055785 6.076259 -3.015607 -14.905185 0.000000 0.000000 0.000000 -4.400864 -0.154250 -0.265547 -54.655522 -3.007359 -8.021449 -17.013291 -30.244650 6.125541 0.000000 0.000000 0.000000 11.412486 -12.138050 -5.925953 56.933318 -0.536976 -8.306576 20.199320 30.415697 7.272635 0.000000 0.000000 0.000000 
-0.001116 0.956964 0.003725 -0.491766 -2.271954 1.186213 4.662373 0.049766 1.834151 -1.212700 0.167679 -1.293012 3.228333 9.619283 11.888327 0.000000 0.000000 0.000000 -3.325511 0.079816 0.331180 2.516007 -0.264730 -0.672233 -2.676631 -10.170984 11.404549 0.000000 0.000000 0.000000 6.360420 -0.039101 -0.325910 -6.143322 1.995377 -26.276564 -1.497070 4.579882 30.701616 6.479964 -3.291669 -15.132454 0.000000 0.000000 0.000000 -4.396762 -0.243550 -0.228166 -54.899961 -2.749700 -8.133617 -16.772917 -29.995884 6.007650 0.000000 0.000000 0.000000 11.252125 -12.247003 -5.973152 56.763302 -0.783993 -8.357019 20.551400 31.174449 7.570911 0.000000 0.000000 0.000000 
-0.001114 0.956610 0.003905 -0.611477 -1.932908 1.163677 4.851039 0.042993 1.871804 -1.355539 0.186048 -1.500094 3.379824 9.872852 11.753009 0.000000 0.000000 0.000000 -3.082170 0.066082 0.370121 2.351281 -0.250479 -0.644500 -2.720137 -10.141731 11.097020 0.000000 0.000000 0.000000 6.208339 -0.053585 -0.169163 -5.895591 1.943656 -26.244377 -1.594018 4.523509 30.545762 6.556063 -3.375951 -14.811604 0.000000 0.000000 0.000000 -4.425485 -0.459588 -0.156345 -54.924746 -2.964579 -8.049543 -16.141653 -29.767141 5.765838 0.000000 0.000000 0.000000 11.386876 -12.472340 -6.086367 56.510176 -1.116047 -8.456311 21.274480 32.127059 8.077133 0.000000 0.000000 0.000000 
-0.001072 0.956441 0.004046 -0.624034 -1.837928 1.177299 4.791196 0.046620 1.938438 -1.358761 0.192950 -1.810810 3.455004 10.070100 12.101773 0.000000 0.000000 0.000000 -2.995519 0.040239 0.679198 2.142343 -0.242251 -1.182069 -2.598554 -9.946881 11.285881 0.000000 0.000000 0.000000 6.171569 -0.073464 0.037594 -5.901801 1.944022 -26.243110 -1.601231 4.414466 30.420370 6.623376 -3.428455 -14.833327 0.000000 0.000000 0.000000 -4.629453 -0.421112 -0.185048 -54.966420 -3.429634 -7.832658 -15.389925 -29.418188 5.489926 0.000000 0.000000 0.000000 11.512557 -12.844991 -6.298757 56.112936 -1.279919 -8.466909 22.170091 33.015348 8.605582 0.000000 0.000000 0.000000 
-0.001059 0.956037 0.004206 -0.707061 -1.606214 1.090175 4.886389 0.041462 1.927331 -1.572629 0.214184 -1.868054 3.680171 10.455352 12.108271 0.000000 0.000000 0.000000 -2.874266 0.014616 0.936845 2.098474 -0.247360 -1.553910 -2.675467 -10.033124 11.142100 0.000000 0.000000 0.000000 6.112738 -0.078274 0.107511 -5.722110 1.913031 -25.994919 -1.683136 4.409890 30.181076 6.612780 -3.439265 -14.549307 0.000000 0.000000 0.000000 -4.680393 -0.553400 -0.148788 -54.993880 -3.824670 -7.648600 -14.569604 -29.131751 5.194697 0.000000 0.000000 0.000000 11.297354 -12.786830 -6.223481 56.158440 -1.790327 -8.655802 23.047325 34.151822 9.246092 0.000000 0.000000 0.000000 
-0.001134 0.955960 0.004286 -0.635217 -1.521475 0.935872 4.801170 0.039019 1.817630 -1.646116 0.213648 -1.483738 3.769236 10.616070 12.157693 0.000000 0.000000 0.000000 -2.863899 -0.017767 1.349901 2.024613 -0.246820 -1.807323 -2.745182 -10.154225 11.135279 0.000000 0.000000 0.000000 5.959408 -0.107929 0.472079 -5.729133 1.916062 -26.079629 -1.612756 4.424142 30.268096 6.619492 -3.408872 -14.738038 0.000000 0.000000 0.000000 -4.840589 -0.693945 -0.108181 -54.870202 -4.276325 -7.450948 -13.874066 -29.094360 4.998873 0.000000 0.000000 0.000000 11.401576 -12.965489 -6.319342 56.254111 -2.290152 -8.897995 24.362019 34.964644 9.964155 0.000000 0.000000 0.000000 
-0.001328 0.955996 0.004312 -0.642385 -1.307848 0.676974 4.942496 0.030711 1.714081 -1.744685 0.214036 -0.998167 3.812375 10.717365 12.204593 0.000000 0.000000 0.000000 -2.891011 -0.052334 1.789024 1.964270 -0.244656 -1.892382 -2.932651 -10.471952 11.072846 0.000000 0.000000 0.000000 5.865846 -0.149390 0.985187 -5.689328 1.910610 -26.027445 -1.823878 4.481292 30.445902 6.708946 -3.408270 -15.010911 0.000000 0.000000 0.000000 -4.941031 -0.819692 -0.076689 -54.679141 -4.909312 -7.186554 -13.108929 -29.212129 4.802672 0.000000 0.000000 0.000000 11.663456 -12.927497 -6.311100 56.666570 -2.593466 -9.107441 25.423178 35.859056 10.677104 0.000000 0.000000 0.000000 
-0.001653 0.956145 0.004156 -0.623094 -1.116235 0.573898 5.024876 0.015331 1.462622 -1.936061 0.226373 -0.590145 3.939079 10.949053 12.265260 0.000000 0.000000 0.000000 -2.873806 -0.072796 2.026973 1.980866 -0.248545 -1.967545 -3.100814 -10.779446 11.122136 0.000000 0.000000 0.000000 5.656657 -0.172333 1.296197 -5.726322 1.932239 -25.618378 -1.845446 4.385072 30.360513 6.563634 -3.289930 -15.066386 0.000000 0.000000 0.000000 -4.880428 -1.000815 -0.003051 -54.248962 -5.204579 -7.004838 -12.643524 -29.680320 4.748204 0.000000 0.000000 0.000000 11.780936 -12.919135 -6.322655 56.832779 -2.974038 -9.294317 26.499697 36.698989 11.359426 0.000000 0.000000 0.000000 
